<svg id="Layer_1" enable-background="new 0 0 512 512" height="512" viewBox="0 0 512 512" width="512" xmlns="http://www.w3.org/2000/svg">
  <g>
    <path d="m452.749 270.471c-4.604-5.969-9.6-11.94-14.939-17.888 3.67-4.259 7.167-8.526 10.458-12.792 34.016-44.106 43.674-84.117 27.194-112.66-16.479-28.544-55.954-40.185-111.164-32.779-5.82.781-11.761 1.771-17.797 2.947-2.054-6.005-4.229-11.822-6.531-17.418-21.19-51.512-51.011-79.881-83.97-79.881s-62.78 28.369-83.969 79.881c-2.302 5.596-4.477 11.413-6.531 17.418-6.036-1.175-11.978-2.166-17.797-2.947-55.204-7.405-94.684 4.235-111.164 32.779s-6.822 68.554 27.194 112.66c3.29 4.266 6.787 8.533 10.458 12.792-5.34 5.948-10.335 11.918-14.939 17.888-34.016 44.106-43.674 84.117-27.194 112.66 13.241 22.934 41.321 34.955 80.484 34.955 9.579 0 19.829-.72 30.679-2.176 6.988-.938 14.15-2.174 21.446-3.679 2.295 6.884 4.748 13.529 7.364 19.889 21.189 51.511 51.01 79.88 83.969 79.88s62.78-28.369 83.969-79.881c2.616-6.36 5.069-13.005 7.364-19.889 7.296 1.505 14.458 2.742 21.446 3.679 10.853 1.456 21.097 2.176 30.679 2.176 39.159 0 67.245-12.022 80.484-34.955 16.481-28.543 6.823-68.553-27.193-112.659zm-57.603-148.345c27.422 0 46.804 6.961 54.335 20.004 9.854 17.068.753 45.986-24.969 79.339-2.451 3.178-5.032 6.358-7.72 9.537-15.039-14.308-31.968-28.308-50.386-41.65-2.544-22.217-6.369-43.447-11.371-63.186 14.684-2.71 28.167-4.044 40.111-4.044zm-99.321 205.866c-13.485 7.785-26.794 14.769-39.816 20.979-13.03-6.212-26.342-13.189-39.834-20.979-14.885-8.594-29.13-17.69-42.569-27.138-1.128-14.35-1.738-29.323-1.738-44.854 0-17.398.763-34.099 2.167-50.002 11.984-8.229 24.573-16.173 37.658-23.728 15.04-8.683 29.857-16.357 44.306-23.084 14.45 6.727 29.267 14.401 44.307 23.084 13.086 7.555 25.674 15.499 37.658 23.728 1.404 15.903 2.167 32.604 2.167 50.002 0 15.531-.61 30.504-1.738 44.854-13.438 9.448-27.683 18.544-42.568 27.138zm37.992 12.012c-2.01 12.77-4.448 24.866-7.248 36.202-11.127-3.233-22.72-7.145-34.677-11.754 6.326-3.359 12.643-6.848 18.933-10.479 7.834-4.524 15.501-9.189 22.992-13.969zm-113.711 24.447c-11.959 4.61-23.549 8.518-34.677 11.751-2.799-11.334-5.237-23.429-7.247-36.198 7.491 4.78 15.158 9.445 22.992 13.968 6.29 3.632 12.606 7.121 18.932 10.479zm-77.872-87.507c-9.5-7.87-18.401-15.888-26.614-23.981 8.323-7.937 17.291-15.787 26.831-23.484-.383 8.755-.583 17.603-.583 26.521 0 7.029.127 14.013.366 20.944zm36.778-110.036c2.017-11.953 4.413-23.283 7.128-33.926 10.659 2.979 21.767 6.595 33.228 10.856-7.578 3.955-15.145 8.105-22.674 12.452-5.994 3.46-11.887 7.005-17.682 10.618zm113.619-23.071c11.461-4.261 22.569-7.878 33.229-10.856 2.715 10.644 5.111 21.974 7.128 33.927-5.795-3.613-11.688-7.158-17.681-10.618-7.531-4.348-15.097-8.498-22.676-12.453zm76.918 85.642c9.54 7.697 18.508 15.547 26.831 23.484-8.213 8.093-17.114 16.111-26.614 23.981.239-6.931.366-13.915.366-20.944 0-8.919-.2-17.766-.583-26.521zm-113.549-199.479c21.699 0 44.749 27.603 61.225 74.297-19.851 5.579-40.429 12.976-61.225 22.018-20.796-9.042-41.374-16.438-61.225-22.018 16.476-46.694 39.526-74.297 61.225-74.297zm-193.481 112.131c7.532-13.045 26.905-20.004 54.335-20.004 11.943 0 25.427 1.334 40.112 4.045-5.003 19.739-8.827 40.969-11.371 63.185-18.418 13.342-35.347 27.342-50.386 41.65-2.688-3.179-5.269-6.359-7.72-9.537-25.723-33.353-34.824-62.271-24.97-79.339zm49.854 246.004c-27.422-.002-46.804-6.961-54.335-20.004-9.854-17.068-.753-45.986 24.969-79.339 3.665-4.753 7.604-9.511 11.793-14.261 14.869 14.618 31.746 28.957 50.198 42.649 2.429 23.266 6.243 45.521 11.342 66.177-16.189 3.211-30.984 4.779-43.967 4.778zm143.627 93.865c-22.12 0-45.641-28.69-62.173-77.041 20.186-5.868 41.088-13.595 62.173-22.987 21.085 9.392 41.987 17.119 62.173 22.987-16.532 48.351-40.053 77.041-62.173 77.041zm197.962-113.869c-11.096 19.22-47.908 25.221-98.303 15.226 5.1-20.656 8.913-42.911 11.342-66.177 18.453-13.692 35.33-28.031 50.198-42.649 4.189 4.75 8.128 9.509 11.793 14.261 25.724 33.353 34.825 62.271 24.97 79.339z" />
    <circle cx="256" cy="256" r="46.35" />
  </g>
</svg>